<svg width="651" height="752" viewBox="0 0 651 752" fill="none" xmlns="http://www.w3.org/2000/svg">
<path fill-rule="evenodd" clip-rule="evenodd" d="M474.967 247.376L474.968 247.375L474.968 247.374C477.928 239.1 480.903 230.786 484.003 222.473C484.815 223.768 485.537 225.081 486.247 226.371L486.247 226.372L486.247 226.372C487.692 228.997 489.083 231.526 491.066 233.614C505.192 248.85 504.863 264.906 497.143 283.419C495.657 286.933 494.199 290.458 492.743 293.98L492.742 293.98C484.214 314.598 475.717 335.138 461.828 353.049C457.229 358.947 451.645 364.681 443.596 363.535C427.663 361.241 417.479 369.596 409.431 381.229C398.097 397.612 387.092 414.16 376.744 431.198L376.603 431.432L376.491 431.616L376.41 431.75C321.989 521.675 267.568 611.601 213.146 701.69C206.674 712.342 200.272 723.065 193.662 734.137L193.659 734.142L193.645 734.165L193.637 734.179C190.19 739.952 186.687 745.82 183.087 751.823C187.192 751.823 191.141 751.87 194.976 751.915H194.977H194.978C203.574 752.017 211.602 752.112 219.552 751.659C221.359 751.495 223.001 750.84 224.48 750.021C225.958 749.202 227.272 748.055 228.257 746.58C236.565 732.771 244.486 718.768 252.391 704.795C254.802 700.533 257.212 696.274 259.63 692.023C314.491 595.852 369.517 499.681 424.707 403.51C429.799 394.499 436.04 386.144 443.267 378.771C447.867 374.348 453.944 371.726 460.35 371.399C470.698 371.399 478.418 367.958 483.017 359.602C484.636 356.707 486.279 353.811 487.925 350.91L487.929 350.903L487.929 350.903C495.965 336.738 504.066 322.459 509.791 307.503C515.671 292.219 520.632 276.598 525.593 260.979L525.594 260.977C529.779 247.8 533.964 234.624 538.7 221.654C543.42 208.412 550.524 195.963 557.515 183.714L557.516 183.713C558.31 182.322 559.102 180.934 559.889 179.548C561.695 176.435 567.937 173.322 571.058 174.141C580.092 176.763 584.855 173.158 587.812 165.786C594.875 148.256 601.774 130.561 608.508 112.703C610.546 107.46 612.234 102.007 614.03 96.2074C614.983 93.1274 615.967 89.9497 617.049 86.6537C619.275 89.3603 621.446 91.8881 623.54 94.3257C627.783 99.2655 631.708 103.835 635.117 108.771C640.045 115.816 644.809 115.652 650.886 111.065C650.886 110.877 650.91 110.713 650.93 110.574C650.964 110.347 650.987 110.183 650.886 110.082C643.33 101.071 635.774 92.0602 628.219 83.2131L627.999 82.9558C615.078 67.8111 614.976 67.692 596.846 75.3491C586.582 79.7187 576.509 84.2786 566.336 88.8838L566.336 88.8841L566.334 88.8847C563.158 90.3225 559.972 91.7648 556.768 93.2071C560.194 97.4343 561.74 99.3409 563.578 99.6858C565.089 99.9692 566.797 99.1984 569.908 97.7944L600.788 84.0323C599.74 87.2742 598.792 90.3827 597.875 93.3895C595.918 99.8039 594.103 105.756 591.754 111.557C584.855 128.923 577.628 146.29 570.237 163.492C567.773 169.063 563.502 172.667 556.439 169.882C553.647 168.571 550.69 168.407 547.898 169.39C545.106 170.209 542.806 172.175 541.492 174.797C540.4 176.602 539.299 178.407 538.195 180.216L538.193 180.219C532.986 188.751 527.732 197.361 523.26 206.417C519.956 213.007 517.465 219.965 514.895 227.144L514.892 227.15C513.629 230.677 512.347 234.257 510.941 237.873C508.443 233.806 505.961 229.849 503.515 225.949L503.51 225.941L503.509 225.94L503.508 225.938C498.073 217.273 492.814 208.888 487.945 200.191C484.988 195.112 482.36 194.621 477.597 196.915C468.8 201.061 459.946 205.094 450.901 209.213L450.897 209.215L450.892 209.217L450.886 209.22C444.567 212.098 438.156 215.018 431.605 218.049C432.138 216.656 432.589 215.37 433.014 214.159C433.639 212.379 434.206 210.762 434.89 209.202C435.366 208.106 435.839 207.009 436.313 205.913L436.313 205.913C443.197 189.966 450.047 174.096 462.65 161.526C468.727 155.3 475.79 152.351 484.003 155.137C492.051 157.922 497.472 154.645 501.578 148.747C505.822 142.398 509.744 135.835 513.691 129.231L513.692 129.23C514.633 127.655 515.576 126.077 516.525 124.5C518.142 121.771 519.476 118.948 520.955 115.819C521.43 114.814 521.92 113.778 522.438 112.703C524.042 114.821 525.633 116.844 527.182 118.815L527.183 118.816L527.184 118.817C531.029 123.707 534.623 128.279 537.55 133.183C541.985 140.883 546.912 139.736 553.154 135.64L522.11 93.0432L481.867 110.082L521.617 15.3855C523.214 17.4612 524.797 19.4373 526.34 21.3641C530.035 25.977 533.504 30.3076 536.4 35.0457C540.999 42.4183 545.434 41.9268 551.512 36.8479C548.281 32.6449 545.081 28.5317 541.91 24.4571L541.905 24.4507C537.662 18.9979 533.473 13.6141 529.337 8.17679C521.946 -1.6533 521.946 -1.6533 510.612 3.09791C501.547 6.75539 492.418 10.6019 483.305 14.442L483.296 14.4456L483.296 14.446L483.293 14.447L483.292 14.4474C477.714 16.7981 472.141 19.1464 466.592 21.4474C468.727 28.82 472.341 29.9668 478.418 27.0178C484.919 24.016 491.684 21.2782 499.231 18.2239C501.982 17.1108 504.836 15.9555 507.82 14.7302C500.754 29.2039 494.608 43.7018 488.528 58.0474L488.527 58.0477C478.777 81.0506 469.193 103.662 456.244 125.155L438.668 98.4498L374.609 118.929C380.084 125.259 385.748 123.314 391.029 121.501C392.719 120.921 394.369 120.354 395.962 120.076C401.407 119.171 406.695 117.562 411.989 115.952C414.361 115.231 416.734 114.509 419.122 113.85L421.257 116.472L402.204 137.442C414.788 142.89 421.451 134.386 428.334 125.603C430.974 122.234 433.646 118.824 436.697 116.144L448.195 134.985L437.354 144.16C447.867 149.402 456.079 147.764 462.814 138.753C463.401 137.992 464.072 137.251 464.745 136.509L464.746 136.508C465.954 135.175 467.167 133.837 467.906 132.364C473.552 121.445 483.562 118.428 493.628 115.394C497.912 114.103 502.206 112.809 506.177 110.901C500.921 121.55 495.172 131.872 488.766 141.702C483.51 150.058 476.283 153.99 465.935 150.222C462.65 148.911 459.036 148.583 455.751 149.566C452.302 150.549 449.509 152.515 447.374 155.3C445.792 157.265 444.171 159.217 442.549 161.172L442.548 161.173L442.548 161.173L442.548 161.173C435.918 169.159 429.258 177.184 425.035 186.265C417.49 202.551 411.155 219.487 404.839 236.374L404.839 236.375L404.839 236.375C402.768 241.912 400.699 247.444 398.59 252.946C389.063 277.849 377.073 301.277 357.691 320.118C350.628 327.163 342.086 332.406 332.067 330.112C311.535 325.525 295.602 333.225 282.626 348.134C266.2 366.975 249.775 385.98 234.171 405.64C159.435 499.681 84.5342 593.722 9.63389 687.436C3.06368 695.628 -0.549931 703.328 0.271345 713.977C0.832224 722.145 0.703622 730.389 0.565687 739.232C0.501649 743.337 0.4356 747.571 0.4356 751.987C1.13548 751.142 1.76928 750.379 2.34996 749.68L2.3534 749.676C4.36015 747.262 5.73234 745.61 7.0058 743.959C89.9547 634.517 173.068 525.24 256.509 416.289C272.935 394.663 290.346 373.692 307.921 352.885C319.091 339.942 333.217 333.389 350.956 336.993C359.826 338.795 367.71 335.519 374.116 329.457C378.879 325.033 383.314 320.118 387.421 315.039C404.339 293.413 414.03 268.346 423.228 242.952C423.295 242.752 423.363 242.545 423.433 242.334C424.217 239.95 425.196 236.974 427.006 236.071C435.828 231.427 444.834 226.965 454.294 222.277L454.299 222.275C457.519 220.679 460.792 219.058 464.128 217.394C463.05 220.59 461.993 223.734 460.95 226.835C456.113 241.226 451.581 254.704 446.717 268.183C438.176 291.775 427.499 314.384 411.238 333.88C403.682 342.891 394.648 348.626 382 346.332C376.908 345.185 371.488 345.513 366.56 347.151C361.633 348.789 357.198 351.738 353.748 355.67C343.565 366.647 333.381 377.788 324.839 389.912C241.562 508.365 158.285 626.981 75.1717 745.597C74.0219 747.563 72.8721 749.529 71.8866 751.659C75.2263 751.659 78.4916 751.67 81.7016 751.68H81.7043H81.7069H81.7088H81.7108C91.1277 751.711 100.068 751.74 109.008 751.495C110.322 751.332 111.801 750.84 112.95 750.185C114.1 749.529 115.25 748.71 116.071 747.563C120.995 740.637 125.725 733.518 130.484 726.353L130.486 726.35C131.918 724.194 133.353 722.035 134.796 719.875C201.812 618.625 268.993 517.539 336.502 416.453C348.492 398.595 361.633 381.393 375.102 364.681C381.836 356.49 391.199 351.083 402.532 353.213C413.044 355.179 421.914 351.902 427.827 343.711C428.839 342.285 429.857 340.857 430.878 339.426C439.475 327.375 448.235 315.095 454.108 301.769C461.821 284.119 468.36 265.845 474.967 247.377L474.967 247.376L474.967 247.376ZM280.491 110.901L291.332 113.686C276.549 118.438 266.858 126.466 257.659 135.968C244.769 150.393 237.295 167.82 229.765 185.375L229.758 185.392C229.422 186.175 229.087 186.957 228.75 187.74C218.895 210.84 207.726 233.286 189.001 250.816C172.247 266.38 153.522 276.866 129.869 270.149C103.588 262.776 81.4136 270.804 61.2102 286.696C44.3583 299.801 27.8789 313.278 11.3402 326.803C8.85698 328.834 6.37246 330.866 3.88514 332.897C2.07833 334.372 0.764289 336.502 0.271524 338.795C-0.0744549 343.512 -0.0155714 348.147 0.0502098 353.326C0.0781184 355.523 0.107269 357.818 0.107269 360.258C4.27147 356.706 8.23611 353.265 12.0827 349.927L12.085 349.925L12.0893 349.921C18.7093 344.175 24.9797 338.733 31.3157 333.553C32.7821 332.338 34.2476 331.123 35.7125 329.909L35.7144 329.907C53.6117 315.072 71.4325 300.3 89.9548 286.368C104.081 275.719 120.999 270.149 138.574 274.9C166.169 282.272 188.344 274.408 207.233 254.093C207.69 253.611 208.146 253.115 208.605 252.617C210.956 250.067 213.382 247.435 216.267 246.065C225.287 242.028 234.551 238.316 244.289 234.414L244.29 234.413L244.29 234.413L244.291 234.413C248.384 232.773 252.561 231.099 256.838 229.354C246.654 247.703 234.828 262.448 219.388 274.572C206.904 284.402 192.943 288.171 177.831 284.238C153.357 277.849 132.333 284.73 114.1 300.622C77.1429 333.225 40.514 366.32 3.88514 399.414C2.07833 401.053 0.764289 403.183 0.435779 405.476C0.192187 411.429 0.219532 417.382 0.249946 424.003C0.260548 426.311 0.271524 428.7 0.271524 431.198C3.55663 428.249 5.52769 426.447 7.49875 424.645C48.234 386.308 89.1336 348.134 130.197 310.124C149.744 291.775 172.082 284.075 199.349 290.628C207.069 292.43 216.76 290.137 224.48 287.187C232.036 284.075 238.77 279.16 244.19 273.098C251.603 265.032 258.478 256.353 265.341 247.69C268.515 243.684 271.686 239.681 274.906 235.743C275.502 237.13 276.158 238.816 276.874 240.657L276.876 240.663L276.877 240.666L276.878 240.669L276.883 240.681C277.349 241.878 277.839 243.14 278.355 244.427C282.758 255.811 284.975 261.545 283.863 266.537C282.733 271.602 278.176 275.902 268.993 284.566C256.181 296.69 241.727 303.243 223.659 298.492C209.697 294.888 196.392 296.526 184.237 304.226C176.353 308.978 168.962 314.548 162.227 320.937C109.501 373.528 56.7753 426.119 4.21365 478.71L4.21352 478.711L4.21337 478.711C2.73511 480.185 0.764289 482.151 0.764289 483.953C0.517664 491.825 0.548765 499.697 0.579593 507.499C0.589829 510.09 0.600034 512.673 0.600034 515.246C3.06386 514.426 5.03492 512.788 6.67747 510.822C11.2783 505.979 15.8792 501.134 20.4808 496.289L20.5341 496.233C63.3923 451.103 106.315 405.905 149.908 361.241C166.169 344.366 183.58 328.638 201.32 313.401C212.489 303.735 226.615 301.277 241.398 305.046C258.481 309.469 272.607 304.39 284.761 292.43C290.018 287.351 294.945 281.945 299.709 276.211C315.078 257.332 323.789 235.133 332.466 213.023L332.466 213.022C333.804 209.613 335.141 206.205 336.502 202.813C347.507 175.452 358.841 148.419 387.749 134.002C376.087 128.595 365.411 130.398 357.362 139.081C348 149.075 338.309 159.56 331.903 171.52C325.442 183.534 320.296 196.131 315.149 208.728L315.149 208.729C312.575 215.027 310.002 221.326 307.264 227.552C305.43 231.597 303.481 235.643 301.453 239.855C300.031 242.807 298.57 245.841 297.081 249.014L277.37 206.417L228.093 229.681C231.435 222.301 234.69 215.008 237.913 207.785L237.913 207.784L237.914 207.782C243.563 195.123 249.115 182.682 254.867 170.373C263.573 151.696 274.578 134.493 292.81 123.353C295.946 121.454 299.387 120.088 303.185 118.58L303.185 118.58C304.958 117.876 306.809 117.142 308.743 116.308L300.694 114.342L333.052 83.8685C333.767 85.2943 334.592 86.7569 335.442 88.2623C337.13 91.2543 338.913 94.4156 340.115 97.7945C343.236 106.478 348.328 105.495 355.555 101.89L335.188 64.536L276.384 86.1622C277.041 91.8964 280.491 91.5687 284.597 90.258C292.293 87.6992 299.99 85.3055 308.097 82.7839L308.107 82.7808C311.417 81.7514 314.795 80.7008 318.269 79.6088C308.414 93.3709 298.395 105.167 280.491 110.901ZM430.948 143.177C410.252 153.171 400.068 170.865 391.856 189.542C386.291 202.203 381.233 215.047 376.17 227.905L376.17 227.907C371.667 239.34 367.16 250.785 362.29 262.121C354.734 279.651 343.729 295.543 329.931 308.814C319.748 318.644 308.25 323.723 293.631 320.282C277.041 316.35 262.423 321.92 251.089 333.717C229.407 356.326 208.054 379.263 187.686 403.019C148.573 448.483 109.657 494.079 70.7727 539.64L70.7662 539.647L70.7555 539.66C48.4112 565.84 26.0769 592.009 3.72076 618.134C2.73523 619.117 1.7497 619.936 0.59991 620.755C0.59991 606.338 0.59991 593.067 0.764166 579.633C0.764166 578.624 1.73609 577.616 2.70801 576.608C2.99959 576.306 3.29117 576.003 3.5565 575.701L3.61781 575.632L3.74481 575.49C72.9977 498.23 142.251 420.971 211.503 343.874C215.61 339.287 220.209 334.863 224.808 330.604C239.92 316.514 257.002 309.141 278.52 314.22C292.317 317.497 303.322 310.78 313.013 301.441C333.709 281.453 345.864 256.223 356.048 230.009L356.048 230.008C363.275 211.495 370.503 192.982 379.372 175.288C383.79 166.475 390.584 158.847 397.269 151.342C398.041 150.476 398.811 149.612 399.576 148.747C407.953 139.409 418.465 137.934 430.948 143.177ZM11.7691 272.606C0.599748 279.979 -1.37131 288.334 1.25677 300.458C4.24991 298.242 7.19297 296.038 10.1101 293.853C17.7586 288.125 25.2292 282.531 32.958 277.194C53.1614 262.94 74.8431 255.895 99.9741 262.776C122.806 269.002 142.516 262.121 160.42 246.884C181.937 228.535 194.421 204.779 205.426 179.712C218.731 149.239 232.856 118.929 269.814 108.771C258.48 104.02 248.625 105.495 238.934 111.065C225.137 118.929 213.639 130.234 205.754 144.16C198.527 157.103 192.121 170.701 185.88 184.299C175.531 206.745 162.72 227.224 143.009 243.116C125.926 256.714 107.201 263.104 85.8482 257.206C58.2533 249.506 34.7648 257.533 11.7691 272.606Z" fill="url(#paint0_linear_1804_1949)" fill-opacity="0.65"/>
<defs>
<linearGradient id="paint0_linear_1804_1949" x1="545.837" y1="-79.0233" x2="429.955" y2="853.462" gradientUnits="userSpaceOnUse">
<stop stop-color="#008A92" stop-opacity="0"/>
<stop offset="0.240515" stop-color="#00686D" stop-opacity="0.83"/>
<stop offset="0.572917" stop-color="#80FFF7" stop-opacity="0.71"/>
<stop offset="0.728241" stop-color="#00FFE0" stop-opacity="0.24"/>
<stop offset="0.865281" stop-color="#141414" stop-opacity="0"/>
</linearGradient>
</defs>
</svg>
