<svg width="32" height="32" viewBox="0 0 32 32" fill="none" xmlns="http://www.w3.org/2000/svg">
<rect x="1" y="1" width="30" height="30" rx="15" stroke="#14B8A6" stroke-width="2"/>
<path d="M12.312 21.5V10.34H11.632L11.584 9.7L12.672 8.7H14.04V21.5H12.312ZM17.6773 15.476C16.9359 15.476 16.4053 15.3293 16.0853 15.036C15.7706 14.7373 15.5973 14.2253 15.5653 13.5C15.5599 13.3987 15.5546 13.252 15.5493 13.06C15.5439 12.868 15.5386 12.6547 15.5333 12.42C15.5333 12.18 15.5333 11.94 15.5333 11.7C15.5333 11.46 15.5359 11.2387 15.5413 11.036C15.5466 10.828 15.5546 10.66 15.5653 10.532C15.6026 10.052 15.6906 9.668 15.8293 9.38C15.9733 9.092 16.1893 8.884 16.4773 8.756C16.7706 8.628 17.1626 8.564 17.6533 8.564C18.4479 8.564 18.9973 8.72133 19.3012 9.036C19.6106 9.35067 19.7839 9.84933 19.8213 10.532C19.8266 10.66 19.8319 10.828 19.8373 11.036C19.8426 11.2387 19.8453 11.46 19.8453 11.7C19.8506 11.94 19.8506 12.18 19.8453 12.42C19.8453 12.6547 19.8426 12.868 19.8373 13.06C19.8373 13.252 19.8319 13.3987 19.8213 13.5C19.7839 13.9533 19.6986 14.3267 19.5653 14.62C19.4373 14.9133 19.2239 15.1293 18.9253 15.268C18.6266 15.4067 18.2106 15.476 17.6773 15.476ZM17.6933 14.452C17.9706 14.452 18.1653 14.404 18.2773 14.308C18.3893 14.2067 18.4479 14.0493 18.4533 13.836C18.4693 13.4733 18.4799 13.1427 18.4853 12.844C18.4906 12.54 18.4933 12.2493 18.4933 11.972C18.4933 11.6893 18.4879 11.4067 18.4773 11.124C18.4719 10.836 18.4639 10.5267 18.4533 10.196C18.4479 9.988 18.3893 9.836 18.2773 9.74C18.1653 9.63867 17.9706 9.588 17.6933 9.588C17.4319 9.588 17.2426 9.63867 17.1253 9.74C17.0079 9.836 16.9439 9.988 16.9333 10.196C16.9119 10.6333 16.8959 11.0387 16.8853 11.412C16.8799 11.78 16.8799 12.156 16.8853 12.54C16.8959 12.9187 16.9119 13.3507 16.9333 13.836C16.9439 14.0493 17.0079 14.2067 17.1253 14.308C17.2426 14.404 17.4319 14.452 17.6933 14.452Z" fill="#404040"/>
</svg>
