<svg width="32" height="32" viewBox="0 0 32 32" fill="none" xmlns="http://www.w3.org/2000/svg">
<rect x="1" y="1" width="30" height="30" rx="15" stroke="#14B8A6" stroke-width="2"/>
<path d="M12.424 22.636C11.4373 22.636 10.7227 22.4307 10.28 22.02C9.83733 21.604 9.60267 20.9213 9.576 19.972C9.57067 19.764 9.56533 19.572 9.56 19.396C9.56 19.22 9.56 19.036 9.56 18.844C9.56533 18.652 9.57067 18.4253 9.576 18.164H11.304V20.188C11.304 20.5293 11.3947 20.7853 11.576 20.956C11.7573 21.1213 12.0267 21.204 12.384 21.204C12.736 21.204 12.9973 21.1213 13.168 20.956C13.344 20.7853 13.4347 20.5293 13.44 20.188C13.456 19.804 13.464 19.3933 13.464 18.956C13.464 18.5187 13.456 18.1187 13.44 17.756C13.424 17.388 13.336 17.0947 13.176 16.876C13.016 16.6573 12.704 16.5533 12.24 16.564L11.04 16.572L10.984 15.116L13.16 11.236H9.672V9.7H15.144L15.12 11.164L12.872 15.06C13.656 15.1187 14.224 15.3587 14.576 15.78C14.9333 16.196 15.1307 16.8493 15.168 17.74C15.1787 17.9693 15.184 18.1853 15.184 18.388C15.1893 18.5907 15.192 18.7827 15.192 18.964C15.192 19.1453 15.1893 19.3213 15.184 19.492C15.184 19.6573 15.1787 19.8173 15.168 19.972C15.1307 20.9213 14.8987 21.604 14.472 22.02C14.0507 22.4307 13.368 22.636 12.424 22.636ZM18.8804 16.476C18.139 16.476 17.6084 16.3293 17.2884 16.036C16.9737 15.7373 16.8004 15.2253 16.7684 14.5C16.763 14.3987 16.7577 14.252 16.7524 14.06C16.747 13.868 16.7417 13.6547 16.7364 13.42C16.7364 13.18 16.7364 12.94 16.7364 12.7C16.7364 12.46 16.739 12.2387 16.7444 12.036C16.7497 11.828 16.7577 11.66 16.7684 11.532C16.8057 11.052 16.8937 10.668 17.0324 10.38C17.1764 10.092 17.3924 9.884 17.6804 9.756C17.9737 9.628 18.3657 9.564 18.8564 9.564C19.651 9.564 20.2004 9.72133 20.5044 10.036C20.8137 10.3507 20.987 10.8493 21.0244 11.532C21.0297 11.66 21.035 11.828 21.0404 12.036C21.0457 12.2387 21.0484 12.46 21.0484 12.7C21.0537 12.94 21.0537 13.18 21.0484 13.42C21.0484 13.6547 21.0457 13.868 21.0404 14.06C21.0404 14.252 21.035 14.3987 21.0244 14.5C20.987 14.9533 20.9017 15.3267 20.7684 15.62C20.6404 15.9133 20.427 16.1293 20.1284 16.268C19.8297 16.4067 19.4137 16.476 18.8804 16.476ZM18.8964 15.452C19.1737 15.452 19.3684 15.404 19.4804 15.308C19.5924 15.2067 19.651 15.0493 19.6564 14.836C19.6724 14.4733 19.683 14.1427 19.6884 13.844C19.6937 13.54 19.6964 13.2493 19.6964 12.972C19.6964 12.6893 19.691 12.4067 19.6804 12.124C19.675 11.836 19.667 11.5267 19.6564 11.196C19.651 10.988 19.5924 10.836 19.4804 10.74C19.3684 10.6387 19.1737 10.588 18.8964 10.588C18.635 10.588 18.4457 10.6387 18.3284 10.74C18.211 10.836 18.147 10.988 18.1364 11.196C18.115 11.6333 18.099 12.0387 18.0884 12.412C18.083 12.78 18.083 13.156 18.0884 13.54C18.099 13.9187 18.115 14.3507 18.1364 14.836C18.147 15.0493 18.211 15.2067 18.3284 15.308C18.4457 15.404 18.635 15.452 18.8964 15.452Z" fill="#404040"/>
</svg>
