<svg width="32" height="32" viewBox="0 0 32 32" fill="none" xmlns="http://www.w3.org/2000/svg">
<rect x="1" y="1" width="30" height="30" rx="15" stroke="#14B8A6" stroke-width="2"/>
<path d="M10.784 22.5C10.7787 22.2867 10.7733 22.1 10.768 21.94C10.768 21.78 10.7653 21.6333 10.76 21.5C10.76 21.3667 10.76 21.2307 10.76 21.092C10.76 20.9533 10.76 20.796 10.76 20.62C10.76 20.444 10.7627 20.236 10.768 19.996C10.784 19.3507 10.872 18.7933 11.032 18.324C11.1973 17.8547 11.4293 17.4493 11.728 17.108C12.0267 16.7667 12.3893 16.4653 12.816 16.204L13.704 15.644C14.0347 15.4093 14.248 15.1453 14.344 14.852C14.4453 14.5533 14.5013 14.2653 14.512 13.988C14.5333 13.6413 14.544 13.2947 14.544 12.948C14.544 12.6013 14.5333 12.2547 14.512 11.908C14.496 11.5987 14.4053 11.3693 14.24 11.22C14.0747 11.0653 13.816 10.988 13.464 10.988C13.1387 10.988 12.896 11.0653 12.736 11.22C12.5813 11.3693 12.4987 11.5987 12.488 11.908C12.4773 12.308 12.472 12.7107 12.472 13.116C12.472 13.516 12.48 13.916 12.496 14.316H10.784C10.7787 14.076 10.7707 13.8307 10.76 13.58C10.7547 13.3293 10.752 13.0867 10.752 12.852C10.752 12.6173 10.7547 12.404 10.76 12.212C10.7973 11.268 11.024 10.5907 11.44 10.18C11.8613 9.76933 12.5387 9.564 13.472 9.564C14.128 9.564 14.6533 9.65467 15.048 9.836C15.448 10.012 15.7387 10.2947 15.92 10.684C16.1067 11.068 16.2133 11.5747 16.24 12.204C16.2453 12.3373 16.2507 12.4813 16.256 12.636C16.2613 12.7853 16.264 12.94 16.264 13.1C16.264 13.2547 16.2613 13.4093 16.256 13.564C16.256 13.7133 16.2533 13.8547 16.248 13.988C16.2267 14.5 16.1413 14.948 15.992 15.332C15.848 15.7107 15.6373 16.0493 15.36 16.348C15.088 16.6467 14.7493 16.9267 14.344 17.188L13.352 17.804C13.1493 17.9427 12.9867 18.132 12.864 18.372C12.7413 18.612 12.6507 18.876 12.592 19.164C12.5387 19.4467 12.512 19.724 12.512 19.996V20.964H16.128V22.5H10.784ZM19.6773 16.476C18.9359 16.476 18.4053 16.3293 18.0853 16.036C17.7706 15.7373 17.5973 15.2253 17.5653 14.5C17.5599 14.3987 17.5546 14.252 17.5493 14.06C17.5439 13.868 17.5386 13.6547 17.5333 13.42C17.5333 13.18 17.5333 12.94 17.5333 12.7C17.5333 12.46 17.5359 12.2387 17.5413 12.036C17.5466 11.828 17.5546 11.66 17.5653 11.532C17.6026 11.052 17.6906 10.668 17.8293 10.38C17.9733 10.092 18.1893 9.884 18.4773 9.756C18.7706 9.628 19.1626 9.564 19.6533 9.564C20.4479 9.564 20.9973 9.72133 21.3012 10.036C21.6106 10.3507 21.7839 10.8493 21.8213 11.532C21.8266 11.66 21.8319 11.828 21.8373 12.036C21.8426 12.2387 21.8453 12.46 21.8453 12.7C21.8506 12.94 21.8506 13.18 21.8453 13.42C21.8453 13.6547 21.8426 13.868 21.8373 14.06C21.8373 14.252 21.8319 14.3987 21.8213 14.5C21.7839 14.9533 21.6986 15.3267 21.5653 15.62C21.4373 15.9133 21.2239 16.1293 20.9253 16.268C20.6266 16.4067 20.2106 16.476 19.6773 16.476ZM19.6933 15.452C19.9706 15.452 20.1653 15.404 20.2773 15.308C20.3893 15.2067 20.4479 15.0493 20.4533 14.836C20.4693 14.4733 20.4799 14.1427 20.4853 13.844C20.4906 13.54 20.4933 13.2493 20.4933 12.972C20.4933 12.6893 20.4879 12.4067 20.4773 12.124C20.4719 11.836 20.4639 11.5267 20.4533 11.196C20.4479 10.988 20.3893 10.836 20.2773 10.74C20.1653 10.6387 19.9706 10.588 19.6933 10.588C19.4319 10.588 19.2426 10.6387 19.1253 10.74C19.0079 10.836 18.9439 10.988 18.9333 11.196C18.9119 11.6333 18.8959 12.0387 18.8853 12.412C18.8799 12.78 18.8799 13.156 18.8853 13.54C18.8959 13.9187 18.9119 14.3507 18.9333 14.836C18.9439 15.0493 19.0079 15.2067 19.1253 15.308C19.2426 15.404 19.4319 15.452 19.6933 15.452Z" fill="#404040"/>
</svg>
