<svg width="25" height="26" viewBox="0 0 25 26" fill="none" xmlns="http://www.w3.org/2000/svg">
<path d="M6.74572 15.2725L3.71582 22.7276L7.22412 22.2891L9.41681 25L11.9683 17.5848M18.2274 15.2725L21.2573 22.7276L17.749 22.2891L15.5962 25L13.0049 17.5848" stroke="#F8FAFC" stroke-miterlimit="10" stroke-linecap="round" stroke-linejoin="round"/>
<path d="M12.4866 14.1561C15.1287 14.1561 17.2706 12.0142 17.2706 9.37206C17.2706 6.72991 15.1287 4.58801 12.4866 4.58801C9.84441 4.58801 7.70251 6.72991 7.70251 9.37206C7.70251 12.0142 9.84441 14.1561 12.4866 14.1561Z" stroke="#F8FAFC" stroke-miterlimit="10" stroke-linecap="round" stroke-linejoin="round"/>
<path d="M12.4866 2.03654L14.2806 1L15.5165 2.67442L17.5497 2.47508L17.9882 4.46844L19.9417 5.14618L19.5431 7.13953L21.058 8.53488L19.862 10.2093L20.6992 12.1229L18.9052 13.1595V15.1927L16.8321 15.4319L15.9949 17.3056L14.0414 16.7076L12.4866 18.0631L10.9318 16.7076L8.97828 17.3056L8.14107 15.4319L6.06798 15.1927V13.1595L4.27396 12.1229L5.11117 10.2093L3.91516 8.53488L5.43011 7.13953L5.03144 5.14618L6.98493 4.46844L7.42347 2.47508L9.45669 2.67442L10.6926 1L12.4866 2.03654Z" stroke="#F8FAFC" stroke-miterlimit="10" stroke-linecap="round" stroke-linejoin="round"/>
</svg>
