<svg width="25" height="24" viewBox="0 0 25 24" fill="none" xmlns="http://www.w3.org/2000/svg">
<g clip-path="url(#clip0_1568_855)">
<path d="M19.2659 4.5H5.76587C5.35166 4.5 5.01587 4.83579 5.01587 5.25V18.75C5.01587 19.1642 5.35166 19.5 5.76587 19.5H19.2659C19.6801 19.5 20.0159 19.1642 20.0159 18.75V5.25C20.0159 4.83579 19.6801 4.5 19.2659 4.5Z" stroke="#F8FAFC" stroke-linecap="round" stroke-linejoin="round"/>
<path d="M12.5159 4.5V0.75M8.76587 4.5V0.75M16.2659 4.5V0.75M8.76587 23.25V19.5M16.2659 23.25V19.5M12.5159 23.25V19.5M20.0159 12H23.7659M20.0159 8.25H23.7659M20.0159 15.75H23.7659M1.26587 8.25H5.01587M1.26587 15.75H5.01587M1.26587 12H5.01587" stroke="#F8FAFC" stroke-linecap="round" stroke-linejoin="round"/>
<path d="M16.2659 7.5H8.76587C8.35166 7.5 8.01587 7.83579 8.01587 8.25V15.75C8.01587 16.1642 8.35166 16.5 8.76587 16.5H16.2659C16.6801 16.5 17.0159 16.1642 17.0159 15.75V8.25C17.0159 7.83579 16.6801 7.5 16.2659 7.5Z" stroke="#F8FAFC" stroke-linecap="round" stroke-linejoin="round"/>
</g>
<defs>
<clipPath id="clip0_1568_855">
<rect width="24" height="24" fill="white" transform="translate(0.515869)"/>
</clipPath>
</defs>
</svg>
