<svg width="23" height="23" viewBox="0 0 23 23" fill="none" xmlns="http://www.w3.org/2000/svg">
<path fill-rule="evenodd" clip-rule="evenodd" d="M11.5158 6.69922C10.3003 6.69922 9.13446 7.1821 8.27492 8.04165C7.41538 8.90119 6.9325 10.067 6.9325 11.2826C6.9325 12.4981 7.41538 13.6639 8.27492 14.5235C9.13446 15.383 10.3003 15.8659 11.5158 15.8659C12.7314 15.8659 13.8972 15.383 14.7567 14.5235C15.6163 13.6639 16.0992 12.4981 16.0992 11.2826C16.0992 10.067 15.6163 8.90119 14.7567 8.04165C13.8972 7.1821 12.7314 6.69922 11.5158 6.69922ZM8.76583 11.2826C8.76583 12.0119 9.05556 12.7114 9.57128 13.2271C10.087 13.7428 10.7865 14.0326 11.5158 14.0326C12.2452 14.0326 12.9446 13.7428 13.4604 13.2271C13.9761 12.7114 14.2658 12.0119 14.2658 11.2826C14.2658 10.5532 13.9761 9.85373 13.4604 9.33801C12.9446 8.82228 12.2452 8.53255 11.5158 8.53255C10.7865 8.53255 10.087 8.82228 9.57128 9.33801C9.05556 9.85373 8.76583 10.5532 8.76583 11.2826Z" fill="white"/>
<path d="M17.0158 4.86572C16.7727 4.86572 16.5395 4.9623 16.3676 5.13421C16.1957 5.30612 16.0991 5.53927 16.0991 5.78239C16.0991 6.0255 16.1957 6.25866 16.3676 6.43057C16.5395 6.60248 16.7727 6.69906 17.0158 6.69906C17.2589 6.69906 17.4921 6.60248 17.664 6.43057C17.8359 6.25866 17.9325 6.0255 17.9325 5.78239C17.9325 5.53927 17.8359 5.30612 17.664 5.13421C17.4921 4.9623 17.2589 4.86572 17.0158 4.86572Z" fill="white"/>
<path fill-rule="evenodd" clip-rule="evenodd" d="M5.09916 1.19922C4.1267 1.19922 3.19407 1.58553 2.50644 2.27316C1.8188 2.96079 1.4325 3.89342 1.4325 4.86589V17.6992C1.4325 18.6717 1.8188 19.6043 2.50644 20.2919C3.19407 20.9796 4.1267 21.3659 5.09916 21.3659H17.9325C18.905 21.3659 19.8376 20.9796 20.5252 20.2919C21.2129 19.6043 21.5992 18.6717 21.5992 17.6992V4.86589C21.5992 3.89342 21.2129 2.96079 20.5252 2.27316C19.8376 1.58553 18.905 1.19922 17.9325 1.19922H5.09916ZM17.9325 3.03255H5.09916C4.61293 3.03255 4.14662 3.22571 3.8028 3.56952C3.45898 3.91334 3.26583 4.37966 3.26583 4.86589V17.6992C3.26583 18.1854 3.45898 18.6518 3.8028 18.9956C4.14662 19.3394 4.61293 19.5326 5.09916 19.5326H17.9325C18.4187 19.5326 18.885 19.3394 19.2289 18.9956C19.5727 18.6518 19.7658 18.1854 19.7658 17.6992V4.86589C19.7658 4.37966 19.5727 3.91334 19.2289 3.56952C18.885 3.22571 18.4187 3.03255 17.9325 3.03255Z" fill="white"/>
</svg>
