<svg width="23" height="23" viewBox="0 0 23 23" fill="none" xmlns="http://www.w3.org/2000/svg">
<path d="M1.51587 2.71521C1.51587 1.92396 2.17337 1.28271 2.98462 1.28271H20.0471C20.8584 1.28271 21.5159 1.92396 21.5159 2.71521V19.8502C21.5159 20.6415 20.8584 21.2827 20.0471 21.2827H2.98462C2.17337 21.2827 1.51587 20.6415 1.51587 19.8502V2.71521ZM7.69462 18.0252V8.99397H4.69337V18.0252H7.69462ZM6.19462 7.76021C7.24087 7.76021 7.89212 7.06771 7.89212 6.20021C7.87337 5.31396 7.24212 4.64021 6.21462 4.64021C5.18712 4.64021 4.51587 5.31521 4.51587 6.20021C4.51587 7.06771 5.16712 7.76021 6.17462 7.76021H6.19462ZM12.3296 18.0252V12.9815C12.3296 12.7115 12.3496 12.4415 12.4296 12.249C12.6459 11.7102 13.1396 11.1515 13.9696 11.1515C15.0559 11.1515 15.4896 11.979 15.4896 13.194V18.0252H18.4909V12.8452C18.4909 10.0702 17.0109 8.78022 15.0359 8.78022C13.4434 8.78022 12.7296 9.65522 12.3296 10.2715V10.3027H12.3096C12.3163 10.2923 12.3229 10.2819 12.3296 10.2715V8.99397H9.32962C9.36712 9.84146 9.32962 18.0252 9.32962 18.0252H12.3296Z" fill="white"/>
</svg>
