<svg width="80" height="64" viewBox="0 0 80 64" fill="none" xmlns="http://www.w3.org/2000/svg">
<rect width="80" height="64" fill="#171717"/>
<path d="M53.7309 31.2737C50.6034 31.2737 48.0598 33.7852 48.0598 36.8908C48.0598 39.9965 50.6034 42.5 53.7309 42.5C56.8585 42.5 59.4021 39.9886 59.4021 36.8829C59.4021 33.7772 56.8585 31.2737 53.7309 31.2737ZM53.8909 40.25C51.8592 40.353 50.1955 38.6972 50.2995 36.6928C50.3875 34.9735 51.8032 33.5712 53.539 33.4841C55.5707 33.3811 57.2344 35.0369 57.1304 37.0413C57.0424 38.7606 55.6267 40.1629 53.8909 40.25Z" fill="#FAFAFA"/>
<path d="M32.1902 40.2341H20.856V42.4762H32.1902V40.2341Z" fill="#FAFAFA"/>
<path d="M32.1902 31.25H20.856V33.4921H32.1902V31.25Z" fill="#FAFAFA"/>
<path d="M32.1902 35.7421H20.856V37.9842H32.1902V35.7421Z" fill="#FAFAFA"/>
<path d="M18.5843 34.6408L11.5213 39.0141C10.9454 39.3706 11.2014 40.2579 11.8813 40.2579H18.5843V42.5H7.25V39.1329L14.3289 34.7517C14.9048 34.3952 14.6489 33.5158 13.969 33.5158H7.25V31.2737H18.5843V34.6408Z" fill="#FAFAFA"/>
<path d="M37.8614 31.2737L42.2767 38.2694C42.6367 38.8398 43.5325 38.5863 43.5325 37.9128V31.2737H45.7962V42.5H42.3967L37.9734 35.4885C37.6134 34.9181 36.7256 35.1716 36.7256 35.845V42.5H34.4619V31.2737H37.8614Z" fill="#FAFAFA"/>
<path d="M65.0733 31.2737L69.4806 38.2694C69.8405 38.8398 70.7364 38.5863 70.7364 37.9128V31.2737H73V42.5H69.6006L65.1772 35.4885C64.8173 34.9181 63.9294 35.1716 63.9294 35.845V42.5H61.6658V31.2737H65.0733C65.0653 31.2737 65.0653 31.2737 65.0733 31.2737Z" fill="#FAFAFA"/>
</svg>
